{
	"asset":{
		"generator":"Khronos glTF Blender I/O v3.6.28",
		"version":"2.0"
	},
	"scene":0,
	"scenes":[
		{
			"name":"Scene",
			"nodes":[
				0
			]
		}
	],
	"nodes":[
		{
			"mesh":0,
			"name":"Circle"
		}
	],
	"materials":[
		{
			"doubleSided":true,
			"name":"white",
			"pbrMetallicRoughness":{
				"metallicFactor":0,
				"roughnessFactor":0
			}
		}
	],
	"meshes":[
		{
			"extras":{
				"targetNames":[
					"angry",
					"sad",
					"scared"
				]
			},
			"name":"Circle.001",
			"primitives":[
				{
					"attributes":{
						"POSITION":0,
						"NORMAL":1,
						"TEXCOORD_0":2
					},
					"indices":3,
					"material":0,
					"targets":[
						{
							"POSITION":4,
							"NORMAL":5
						},
						{
							"POSITION":6,
							"NORMAL":7
						},
						{
							"POSITION":8,
							"NORMAL":9
						}
					]
				}
			],
			"weights":[
				0,
				0,
				0
			]
		}
	],
	"accessors":[
		{
			"bufferView":0,
			"componentType":5126,
			"count":3756,
			"max":[
				0.7284155488014221,
				1.494726538658142,
				1.034052848815918
			],
			"min":[
				0.028819259256124496,
				-1.3699945211410522,
				-1.0340527296066284
			],
			"type":"VEC3"
		},
		{
			"bufferView":1,
			"componentType":5126,
			"count":3756,
			"type":"VEC3"
		},
		{
			"bufferView":2,
			"componentType":5126,
			"count":3756,
			"type":"VEC2"
		},
		{
			"bufferView":3,
			"componentType":5123,
			"count":22560,
			"type":"SCALAR"
		},
		{
			"bufferView":4,
			"componentType":5126,
			"count":3756,
			"max":[
				0.06597575545310974,
				0.3241562843322754,
				0.25435250997543335
			],
			"min":[
				-0.18921780586242676,
				-0.12648510932922363,
				-0.2543524503707886
			],
			"type":"VEC3"
		},
		{
			"bufferView":5,
			"componentType":5126,
			"count":3756,
			"type":"VEC3"
		},
		{
			"bufferView":6,
			"componentType":5126,
			"count":3756,
			"max":[
				0.08928406238555908,
				0.3277983069419861,
				0.3353351950645447
			],
			"min":[
				-0.15998435020446777,
				-0.1772969365119934,
				-0.3353351354598999
			],
			"type":"VEC3"
		},
		{
			"bufferView":7,
			"componentType":5126,
			"count":3756,
			"type":"VEC3"
		},
		{
			"bufferView":8,
			"componentType":5126,
			"count":3756,
			"max":[
				0.09154719114303589,
				0.15430080890655518,
				0.21699607372283936
			],
			"min":[
				-0.06035417318344116,
				-0.13937556743621826,
				-0.21699601411819458
			],
			"type":"VEC3"
		},
		{
			"bufferView":9,
			"componentType":5126,
			"count":3756,
			"type":"VEC3"
		}
	],
	"bufferViews":[
		{
			"buffer":0,
			"byteLength":45072,
			"byteOffset":0,
			"target":34962
		},
		{
			"buffer":0,
			"byteLength":45072,
			"byteOffset":45072,
			"target":34962
		},
		{
			"buffer":0,
			"byteLength":30048,
			"byteOffset":90144,
			"target":34962
		},
		{
			"buffer":0,
			"byteLength":45120,
			"byteOffset":120192,
			"target":34963
		},
		{
			"buffer":0,
			"byteLength":45072,
			"byteOffset":165312,
			"target":34962
		},
		{
			"buffer":0,
			"byteLength":45072,
			"byteOffset":210384,
			"target":34962
		},
		{
			"buffer":0,
			"byteLength":45072,
			"byteOffset":255456,
			"target":34962
		},
		{
			"buffer":0,
			"byteLength":45072,
			"byteOffset":300528,
			"target":34962
		},
		{
			"buffer":0,
			"byteLength":45072,
			"byteOffset":345600,
			"target":34962
		},
		{
			"buffer":0,
			"byteLength":45072,
			"byteOffset":390672,
			"target":34962
		}
	],
	"buffers":[
		{
			"byteLength":435744,
			"uri":"data:application/octet-stream;base64,"
		}
	]
}
